<?xml version="1.0" encoding="iso-8859-1"?>
<!-- Generator: Adobe Illustrator 19.0.0, SVG Export Plug-In . SVG Version: 6.00 Build 0)  -->
<svg version="1.1" id="Layer_1" xmlns="http://www.w3.org/2000/svg" xmlns:xlink="http://www.w3.org/1999/xlink" x="0px" y="0px"
	 viewBox="0 0 512 512" style="enable-background:new 0 0 512 512;" xml:space="preserve">
<rect x="10.199" y="112.701" style="fill:#72BEDE;" width="491.602" height="286.598"/>
<g>
	<path style="fill:#534741;" d="M501.801,102.502H10.199C4.567,102.502,0,107.069,0,112.701v286.598
		c0,5.632,4.567,10.199,10.199,10.199h491.602c5.632,0,10.199-4.567,10.199-10.199V112.701
		C512,107.069,507.433,102.502,501.801,102.502z M340.653,389.1h-32.637V227.686l18.869-18.121l13.796,13.25
		c-0.01,0.183-0.028,0.362-0.028,0.547V389.1z M287.618,389.1H254.98V278.62l32.637-31.343V389.1z M234.582,389.1h-32.637v-59.547
		l32.637-31.343V389.1z M181.546,389.1h-32.637v-89.912l32.637,31.344V389.1z M128.51,389.1H95.873v-57.589l32.637-31.344V389.1z
		 M75.474,389.1H35.907L75.474,351.1V389.1z M491.602,389.1h-77.514V284.561c0-5.632-4.567-10.199-10.199-10.199
		s-10.199,4.567-10.199,10.199V389.1h-32.637V242.379l2.624,2.52c3.948,3.791,10.181,3.791,14.13,0l50.561-48.556v13.761
		c0,5.632,4.567,10.199,10.199,10.199c5.632,0,10.199-4.567,10.199-10.199v-38.757c0-5.632-4.567-10.199-10.199-10.199h-38.757
		c-5.632,0-10.199,4.567-10.199,10.199s4.567,10.199,10.199,10.199h14.517l-43.584,41.857l-36.792-35.334
		c-3.948-3.791-10.181-3.791-14.13,0L191.235,311.556l-44.951-43.17c-3.948-3.791-10.181-3.791-14.13,0L20.398,375.711V122.9
		h471.203V389.1z"/>
	<path style="fill:#534741;" d="M403.888,241.721c-5.632,0-10.199,4.567-10.199,10.199v2.041c0,5.632,4.567,10.199,10.199,10.199
		s10.199-4.567,10.199-10.199v-2.041C414.088,246.288,409.52,241.721,403.888,241.721z"/>
</g>
<g>
</g>
<g>
</g>
<g>
</g>
<g>
</g>
<g>
</g>
<g>
</g>
<g>
</g>
<g>
</g>
<g>
</g>
<g>
</g>
<g>
</g>
<g>
</g>
<g>
</g>
<g>
</g>
<g>
</g>
</svg>
